REM DIRINDEX 1\2,1\3,1\4,1\5,1\6
REM DIRNAME folder01,folder02,folder03,folder04,folder05,folder06
TITLE ""
FILE "DISC2Track28.mp3" MP3
  TRACK 01 AUDIO
    TITLE "0:"
    INDEX 01 00:00:00
  TRACK 02 AUDIO
    TITLE "3:cjc129_1820"
    INDEX 01 00:00:09
  TRACK 03 AUDIO
    TITLE "0:"
    INDEX 01 00:01:44
  TRACK 04 AUDIO
    TITLE "5:cjc129_1821"
    INDEX 01 00:03:15
  TRACK 05 AUDIO
    TITLE "0:"
    INDEX 01 00:05:44
  TRACK 06 AUDIO
    TITLE "4:cjc129_1822"
    INDEX 01 00:06:39
  TRACK 07 AUDIO
    TITLE "0:"
    INDEX 01 00:07:74
  TRACK 08 AUDIO
    TITLE "6:cjc129_1823"
    INDEX 01 00:08:32
  TRACK 09 AUDIO
    TITLE "0:"
    INDEX 01 00:13:18
  TRACK 10 AUDIO
    TITLE "3:cjc129_1824"
    INDEX 01 00:14:72
  TRACK 11 AUDIO
    TITLE "0:"
    INDEX 01 00:16:32
  TRACK 12 AUDIO
    TITLE "5:cjc129_1825"
    INDEX 01 00:17:65
  TRACK 13 AUDIO
    TITLE "0:"
    INDEX 01 00:19:09
  TRACK 14 AUDIO
    TITLE "4:cjc129_1826"
    INDEX 01 00:20:02
  TRACK 15 AUDIO
    TITLE "0:"
    INDEX 01 00:21:39
  TRACK 16 AUDIO
    TITLE "6:cjc129_1827"
    INDEX 01 00:21:72
  TRACK 17 AUDIO
    TITLE "0:"
    INDEX 01 00:25:48
  TRACK 18 AUDIO
    TITLE "3:cjc129_1828"
    INDEX 01 00:27:24
  TRACK 19 AUDIO
    TITLE "0:"
    INDEX 01 00:28:45
  TRACK 20 AUDIO
    TITLE "5:cjc129_1829"
    INDEX 01 00:30:16
  TRACK 21 AUDIO
    TITLE "0:"
    INDEX 01 00:31:69
  TRACK 22 AUDIO
    TITLE "4:cjc129_1830"
    INDEX 01 00:32:58
  TRACK 23 AUDIO
    TITLE "0:"
    INDEX 01 00:34:06
  TRACK 24 AUDIO
    TITLE "6:cjc129_1831"
    INDEX 01 00:34:40
  TRACK 25 AUDIO
    TITLE "0:"
    INDEX 01 00:39:27
  TRACK 26 AUDIO
    TITLE "3:cjc129_1832"
    INDEX 01 00:41:04
  TRACK 27 AUDIO
    TITLE "0:"
    INDEX 01 00:42:27
  TRACK 28 AUDIO
    TITLE "5:cjc129_1833"
    INDEX 01 00:43:60
  TRACK 29 AUDIO
    TITLE "0:"
    INDEX 01 00:47:38
  TRACK 30 AUDIO
    TITLE "4:cjc129_1834"
    INDEX 01 00:48:26
  TRACK 31 AUDIO
    TITLE "0:"
    INDEX 01 00:49:47
  TRACK 32 AUDIO
    TITLE "6:cjc129_1835"
    INDEX 01 00:50:05
  TRACK 33 AUDIO
    TITLE "0:"
    INDEX 01 00:54:21
  TRACK 34 AUDIO
    TITLE "3:cjc129_1836"
    INDEX 01 00:56:00
  TRACK 35 AUDIO
    TITLE "0:"
    INDEX 01 00:57:15
  TRACK 36 AUDIO
    TITLE "5:cjc129_1837"
    INDEX 01 00:58:67
  TRACK 37 AUDIO
    TITLE "0:"
    INDEX 01 01:01:44
  TRACK 38 AUDIO
    TITLE "4:cjc129_1838"
    INDEX 01 01:02:34
  TRACK 39 AUDIO
    TITLE "0:"
    INDEX 01 01:03:51
  TRACK 40 AUDIO
    TITLE "6:cjc129_1839"
    INDEX 01 01:04:09
  TRACK 41 AUDIO
    TITLE "0:"
    INDEX 01 01:10:57
  TRACK 42 AUDIO
    TITLE "3:cjc129_1840"
    INDEX 01 01:12:34
  TRACK 43 AUDIO
    TITLE "0:"
    INDEX 01 01:13:49
  TRACK 44 AUDIO
    TITLE "5:cjc129_1841"
    INDEX 01 01:15:09
  TRACK 45 AUDIO
    TITLE "0:"
    INDEX 01 01:17:57
  TRACK 46 AUDIO
    TITLE "4:cjc129_1842"
    INDEX 01 01:18:45
  TRACK 47 AUDIO
    TITLE "0:"
    INDEX 01 01:19:60
  TRACK 48 AUDIO
    TITLE "6:cjc129_1843"
    INDEX 01 01:20:24
  TRACK 49 AUDIO
    TITLE "0:"
    INDEX 01 01:23:65
  TRACK 50 AUDIO
    TITLE "3:cjc129_1844"
    INDEX 01 01:25:45
  TRACK 51 AUDIO
    TITLE "0:"
    INDEX 01 01:26:62
  TRACK 52 AUDIO
    TITLE "5:cjc129_1845"
    INDEX 01 01:28:35
  TRACK 53 AUDIO
    TITLE "0:"
    INDEX 01 01:32:06
  TRACK 54 AUDIO
    TITLE "4:cjc129_1846"
    INDEX 01 01:32:72
  TRACK 55 AUDIO
    TITLE "0:"
    INDEX 01 01:34:18
  TRACK 56 AUDIO
    TITLE "6:cjc129_1847"
    INDEX 01 01:34:52
  TRACK 57 AUDIO
    TITLE "0:"
    INDEX 01 01:38:43
  TRACK 58 AUDIO
    TITLE "3:cjc129_1848"
    INDEX 01 01:40:17
  TRACK 59 AUDIO
    TITLE "0:"
    INDEX 01 01:41:36
  TRACK 60 AUDIO
    TITLE "5:cjc129_1849"
    INDEX 01 01:42:71
  TRACK 61 AUDIO
    TITLE "0:"
    INDEX 01 01:44:48
  TRACK 62 AUDIO
    TITLE "4:cjc129_1850"
    INDEX 01 01:45:36
  TRACK 63 AUDIO
    TITLE "0:"
    INDEX 01 01:46:53
  TRACK 64 AUDIO
    TITLE "6:cjc129_1851"
    INDEX 01 01:47:13
  TRACK 65 AUDIO
    TITLE "0:"
    INDEX 01 01:51:05
